Coordinates
nRows=22
nColumns=24

# SIMM Motion File Header:
name Coordinates
datacolumns 24
datarows 22
otherdata 1
range 11.23333333 11.58333333

Units are S.I. units (second, meters, Newtons, ...)
Angles are in degrees.

endheader
time	pelvis_tilt	pelvis_list	pelvis_rotation	pelvis_tx	pelvis_ty	pelvis_tz	hip_flexion_r	hip_adduction_r	hip_rotation_r	knee_angle_r	ankle_angle_r	subtalar_angle_r	mtp_angle_r	hip_flexion_l	hip_adduction_l	hip_rotation_l	knee_angle_l	ankle_angle_l	subtalar_angle_l	mtp_angle_l	lumbar_extension	lumbar_bending	lumbar_rotation
     11.23333333	      5.36950011	      0.42594550	     -3.78521150	      0.62234747	      1.02741072	      0.00642000	     -1.73884137	     -5.76099914	     -3.96271914	    -60.95167021	     -6.95544891	      3.06834219	      0.00000000	     11.59757032	      1.99789232	     -6.77549899	    -19.53554942	      2.55208688	      7.02921003	      0.00000000	    -17.42836786	     -4.20903835	      0.48016550
     11.25000000	      5.35476995	      0.26691525	     -3.46478793	      0.62186702	      1.03065151	      0.00413781	      0.87761862	     -5.60261641	     -4.11659806	    -64.07743102	     -5.84468655	      0.80593677	      0.00000000	      9.98007440	      2.08472139	     -6.54944096	    -18.62576971	      3.12256370	      7.41411463	      0.00000000	    -17.39809902	     -3.83822335	     -0.18023024
     11.26666667	      5.48070407	     -0.07384509	     -2.96571909	      0.62145690	      1.03414816	      0.00211035	      3.11097968	     -5.12145583	     -4.40800001	    -66.33126874	     -4.39563957	     -1.43941545	      0.00000000	      8.17093643	      1.92840641	     -6.31381065	    -17.65099936	      3.67152021	      8.11177089	      0.00000000	    -17.40791498	     -3.28311805	     -0.89609132
     11.28333333	      5.54142416	     -0.44135037	     -2.54738571	      0.62036502	      1.03717135	      0.00036318	      5.38898874	     -4.61458965	     -4.68803662	    -67.91902679	     -3.02410058	     -3.28349677	      0.00000000	      6.48494031	      1.69376739	     -6.19457806	    -16.68491579	      4.20791808	      8.81036605	      0.00000000	    -17.57131948	     -2.70390279	     -1.77405607
     11.30000000	      5.57917421	     -0.56862900	     -2.02409023	      0.61907373	      1.03971080	     -0.00191496	      7.60867085	     -4.46242137	     -5.08324806	    -68.85964903	     -1.81934353	     -4.46365945	      0.00000000	      4.73090030	      1.76549831	     -5.94026325	    -15.42184563	      4.56995182	      9.31399960	      0.00000000	    -17.55660338	     -2.32210876	     -2.72400474
     11.31666667	      5.46234302	     -0.93296841	     -1.50981858	      0.61680059	      1.04169040	     -0.00349336	      9.92706877	     -3.98463668	     -5.45341433	    -69.03098450	     -0.93333629	     -5.23202490	      0.00000000	      3.24790882	      1.49767936	     -5.75386223	    -14.27837368	      4.96036215	      9.87706577	      0.00000000	    -17.51078707	     -1.70047929	     -3.42818390
     11.33333333	      5.54392117	     -1.08598776	     -1.28526542	      0.61451891	      1.04359487	     -0.00445223	     11.92607370	     -3.71968498	     -5.52268296	    -68.51274684	     -0.14747514	     -5.21931772	      0.00000000	      1.48805161	      1.40930564	     -5.97758966	    -13.03261166	      5.27937148	     10.56965149	      0.00000000	    -17.72862297	     -1.46145930	     -3.84893429
     11.35000000	      5.47253950	     -1.25849875	     -0.95820198	      0.61236114	      1.04463140	     -0.00578814	     13.88352818	     -3.45975021	     -5.63207579	    -67.28576558	      0.53440861	     -4.66668082	      0.00000000	     -0.05781577	      1.28394298	     -6.17360465	    -11.90996217	      5.68268423	     11.46810612	      0.00000000	    -17.72015007	     -1.10869385	     -4.32088505
     11.36666667	      5.42323723	     -1.51145154	     -0.60098124	      0.60953541	      1.04544359	     -0.00694500	     15.58182511	     -3.14965346	     -5.83762869	    -65.24034489	      1.14345609	     -3.74305538	      0.00000000	     -1.56813130	      1.04978996	     -6.23906216	    -10.80731956	      6.02353303	     12.26929567	      0.00000000	    -17.86645761	     -0.67211552	     -4.81167833
     11.38333333	      5.31312785	     -1.58122061	     -0.48374388	      0.60750529	      1.04571125	     -0.00809335	     17.11610271	     -3.03063864	     -5.82739066	    -62.56545171	      1.71145669	     -2.79916442	      0.00000000	     -3.15133464	      1.05420641	     -6.42377744	     -9.52815067	      6.30218212	     12.90581256	      0.00000000	    -17.80699713	     -0.42071287	     -4.90350372
     11.40000000	      5.01610336	     -1.59200958	     -0.28400979	      0.60431850	      1.04500192	     -0.00920375	     18.67071943	     -3.05259526	     -6.01193654	    -59.24964420	      2.18802190	     -2.09645125	      0.00000000	     -4.31366017	      1.09678088	     -6.48851119	     -8.52236149	      6.67296457	     13.48374990	      0.00000000	    -17.64136327	     -0.12744404	     -5.13844904
     11.41666667	      4.96479026	     -1.60817297	     -0.16680292	      0.60117167	      1.04435746	     -0.00944568	     19.64004310	     -2.87189757	     -5.99725311	    -55.11591462	      2.32137901	     -2.36852405	      0.00000000	     -5.72814741	      1.08628035	     -6.69814233	     -7.54224050	      7.08972096	     14.17759041	      0.00000000	    -17.96394864	     -0.05491108	     -5.52286476
     11.43333333	      4.65961151	     -1.78777616	     -0.14016420	      0.59906562	      1.04293949	     -0.00879112	     20.42537551	     -2.37492011	     -5.93883206	    -50.12055341	      2.15202844	     -3.48851931	      0.00000000	     -6.83241106	      0.83101652	     -7.37524642	     -6.79209824	      7.77177538	     15.42257445	      0.00000000	    -17.73110956	      0.14948966	     -5.34053822
     11.45000000	      4.69711515	     -1.47287416	      0.23635638	      0.59632135	      1.04135720	     -0.00903953	     20.65229999	     -2.60212133	     -6.12532987	    -44.74560630	      1.86360273	     -4.54279345	      0.00000000	     -8.26045351	      1.16038477	     -7.11489253	     -5.96344395	      8.26865324	     15.69630404	      0.00000000	    -17.98331625	     -0.01535583	     -5.90751006
     11.46666667	      4.48334456	     -1.28373944	      0.28586059	      0.59392588	      1.03902692	     -0.00824038	     20.76873091	     -2.50169148	     -6.00928861	    -38.59271814	      1.30823615	     -5.64796419	      0.00000000	     -9.22634635	      1.29708203	     -7.60535658	     -5.66040035	      9.13326323	     16.60266460	      0.00000000	    -17.91596984	     -0.23765458	     -5.86892369
     11.48333333	      4.50179015	     -0.95585710	      0.58305196	      0.59211847	      1.03669902	     -0.00786285	     20.31584754	     -2.63800874	     -6.03096281	    -32.04549131	      0.74373886	     -6.31742462	      0.00000000	    -10.64748908	      1.58076699	     -7.50185967	     -4.97673931	      9.76815869	     17.00699856	      0.00000000	    -18.04076544	     -0.48935985	     -6.22630869
     11.50000000	      4.34216492	     -0.50547001	      0.69110816	      0.59002966	      1.03361853	     -0.00715805	     19.88789621	     -2.79086904	     -5.55083806	    -25.22751650	      0.09082317	     -6.63122228	      0.00000000	    -11.82172317	      2.01739954	     -7.33838335	     -4.42285618	     10.41664882	     17.07416071	      0.00000000	    -18.04269347	     -0.84996129	     -6.52959401
     11.51666667	      4.31429764	      0.12218089	      0.59702166	      0.58846534	      1.03027014	     -0.00646770	     19.29097909	     -3.20024352	     -4.94155575	    -18.65518450	     -0.15064164	     -5.60495014	      0.00000000	    -13.08478808	      2.65996605	     -7.53298805	     -4.10344478	     11.14245940	     17.45385555	      0.00000000	    -18.12903471	     -1.46381897	     -6.50716312
     11.53333333	      4.22855202	      0.68166191	      0.71965531	      0.58738040	      1.02649164	     -0.00603232	     18.67468790	     -3.68483994	     -4.57118108	    -12.47157652	     -0.07432835	     -3.64833516	      0.00000000	    -14.40682548	      3.19333218	     -7.32867772	     -3.59293577	     11.77214895	     17.61616038	      0.00000000	    -18.03685800	     -1.82769238	     -6.77050221
     11.55000000	      4.22797020	      1.43406529	      0.80353705	      0.58638623	      1.02263145	     -0.00548679	     18.14559382	     -4.42388739	     -4.20557474	     -7.26413370	      0.46512175	     -0.98737489	      0.00000000	    -15.59034928	      3.86991362	     -7.15542962	     -3.60421687	     12.53988095	     17.94471666	      0.00000000	    -18.08961130	     -2.46656578	     -7.04100464
     11.56666667	      4.13200195	      1.92589713	      1.12482800	      0.58644614	      1.01880738	     -0.00506472	     17.78652589	     -4.99358247	     -4.64313851	     -3.19308241	      1.34537021	      2.19675637	      0.00000000	    -16.68549327	      4.15754806	     -7.05487956	     -3.71086085	     13.33304436	     18.71708595	      0.00000000	    -17.85969594	     -2.65361896	     -7.45761262
     11.58333333	      4.23463096	      2.24813857	      1.52897760	      0.58633692	      1.01568402	     -0.00409776	     17.37090392	     -5.29704368	     -4.58623592	     -0.33477786	      1.94536200	      3.60706122	      0.00000000	    -17.82066211	      4.15179294	     -6.93767888	     -4.13579491	     14.14785901	     19.59436801	      0.00000000	    -18.00882566	     -2.73914867	     -7.91731581
